# xmcd CD database file
#
# Track frame offsets:
#	150
#	10638
#	23481
#	33228
#	43927
#	56785
#	66414
#	77695
#	87330
#	99938
#	108578
#	120532
#	131148
#	139560
#	151000
#	160082
#	169262
#	178417
#	191422
#	202342
#	216083
#	227960
#	235133
#	245739
#
# Disc length: 3408 seconds
#
# Revision: 2
# Processed by: cddbd v1.5.2PL0 Copyright (c) Steve Scherf et al.
# Submitted via: CDex 1.70beta2
#
DISCID=4d0d4e18
DTITLE=Various Artist - Rare and Unreleased Group Harmony Gems Vol 9
DYEAR=1900
DGENRE=Blues
TTITLE0=De Bonaires - Lanky Linda
TTITLE1=Castle-Tones - We Met At A Dance
TTITLE2=Mello-Harps - Ringa Danga Doo (unr)
TTITLE3=Twilighters - Help Me
TTITLE4=Remainders - Over The Rainbow
TTITLE5=Remainders - Pen In Hand
TTITLE6=Soultakers - My Girl Shirl (unr)
TTITLE7=Moniques - All The Way Now
TTITLE8=Starlighters - Until You Return
TTITLE9=Three Notes - Lucy Lucy
TTITLE10=Three Notes - Bertha My Girl
TTITLE11=Ravens - Simon Says (unr)
TTITLE12=Defenders - I Laughed So Hard
TTITLE13=Cheques - A Thousand Miles Away
TTITLE14=Lil' June and The Januarys - Oh My Love
TTITLE15=Soultakers - One Night (unr)
TTITLE16=J.J. Jackson and The Jackaels - A Life Time From Today
TTITLE17=Titans - Three Time Mama (unr)
TTITLE18=Pretenders - Anything For You (unr)
TTITLE19=Mystery Quartet - Mommies Boy (unr)
TTITLE20=Five Embers - My Fragile Heart
TTITLE21=Leisure Lads - Poor Jim (unr)
TTITLE22=Royal Jacks - Night After Night
TTITLE23=Calendars - I'm Gonna Laugh At You
EXTD=
EXTT0=
EXTT1=
EXTT2=
EXTT3=
EXTT4=
EXTT5=
EXTT6=
EXTT7=
EXTT8=
EXTT9=
EXTT10=
EXTT11=
EXTT12=
EXTT13=
EXTT14=
EXTT15=
EXTT16=
EXTT17=
EXTT18=
EXTT19=
EXTT20=
EXTT21=
EXTT22=
EXTT23=
PLAYORDER=
